<?xml version="1.0" encoding="utf-8"?>
<!-- Generator: Adobe Illustrator 23.0.3, SVG Export Plug-In . SVG Version: 6.00 Build 0)  -->
<svg version="1.1" id="Layer_1" xmlns="http://www.w3.org/2000/svg" xmlns:xlink="http://www.w3.org/1999/xlink" x="0px" y="0px"
	 viewBox="0 0 4374 598.8" style="enable-background:new 0 0 4374 598.8;" xml:space="preserve">
<style type="text/css">
	.st0{fill:#238543;}
	.st1{fill:#005431;}
	.st2{fill:#006F3B;}
	.st3{opacity:0.75;fill:#238543;}
</style>
<title>Background Design</title>
<rect x="-15.4" y="-14" class="st0" width="4407.6" height="636.9"/>
<path class="st0" d="M1541.4,297l309,297c0,0-455.2,5.2-456.3,0s-10.3-208.6-10.3-208.6L1541.4,297z"/>
<polygon class="st1" points="1383.9,385.4 1217.4,395.8 1085.9,499.8 1394.2,594 "/>
<polygon class="st1" points="1541.4,297 1408.6,0 1383.9,385.4 "/>
<polygon class="st2" points="1085.9,499.8 845.4,594 1394.2,594 "/>
<polygon class="st2" points="1217.4,395.8 922.2,231 1085.9,499.8 "/>
<polygon class="st0" points="922.2,231 1402.5,94.3 1383.9,385.4 1217.4,395.8 "/>
<polygon class="st0" points="1408.6,0 709.8,0 1402.5,94.3 "/>
<polygon class="st1" points="922.2,231 709.8,0 1402.5,94.3 "/>
<polygon class="st0" points="1085.9,499.8 364.5,297 922.2,231 "/>
<polygon class="st1" points="845.4,594 428.2,594 364.5,297 1085.9,499.8 "/>
<polygon class="st0" points="428.2,594 0,594 364.5,297 "/>
<polygon class="st1" points="364.5,297 159,162.7 0,594 "/>
<polygon class="st2" points="134.3,0 159,162.7 0,594 0,0 "/>
<polygon class="st2" points="709.8,0 279,241.1 364.5,297 922.2,231 "/>
<polygon class="st0" points="134.3,0 159,162.7 279,241.1 709.8,0 "/>
<polygon class="st2" points="1541.4,297 2062,115.5 1408.6,0 "/>
<polygon class="st1" points="2062,115.5 1735.3,483.4 1541.4,297 "/>
<polygon class="st2" points="2435.1,596.3 1979,208.9 1735.3,483.4 "/>
<polygon class="st0" points="2062,115.5 2607.7,0 2163.2,365.4 1979,208.9 "/>
<polygon class="st1" points="2607.7,0 1408.6,0 2062,115.5 "/>
<polygon class="st1" points="2435.1,596.3 2409.8,162.7 2163.2,365.4 "/>
<path class="st2" d="M2435.1,596.4c0,0,351.5,5.3,351.5,0s-126.4-296.9-126.4-296.9L2435.1,596.4z"/>
<polygon class="st0" points="2660.1,299.4 2409.8,162.7 2435.1,596.3 "/>
<polygon class="st1" points="2660.1,299.4 2900.6,0 2607.7,0 2409.8,162.7 "/>
<polygon class="st0" points="2900.6,0 2786.5,596.3 2660.1,299.4 "/>
<polygon class="st1" points="2900.6,0 3082.8,598.7 2786.5,596.3 "/>
<polygon class="st2" points="3370.6,379.2 3082.8,598.7 2900.6,0 "/>
<polygon class="st1" points="2435.1,596.3 1850.4,594 1735.3,483.4 "/>
<polygon class="st1" points="2900.6,0 3484.9,0 3594.3,257.7 3370.6,379.2 "/>
<polygon class="st2" points="3594.3,257.7 3683.5,464.3 3370.6,379.2 "/>
<polygon class="st0" points="3594.3,598.7 3683.5,464.3 3370.6,379.2 3082.8,598.7 "/>
<polygon class="st2" points="3818.8,297 3683.5,464.3 3594.3,598.7 4080.6,598.7 "/>
<polygon class="st0" points="3818.8,297 3818.8,0 3484.9,0 3683.5,464.3 "/>
<polygon class="st2" points="3818.8,297 4002.9,232.1 3818.8,0 "/>
<polygon class="st1" points="4002.9,232.1 4080.6,598.7 3818.8,297 "/>
<polygon class="st1" points="4002.3,232.2 4215.3,0.1 3818.1,0.1 "/>
<polygon class="st0" points="4215.3,0.1 4080,598.8 4002.3,232.2 "/>
<polygon class="st1" points="4215.3,0.1 4374,0.1 4374,598.8 4252.7,347.6 "/>
<polygon class="st2" points="4122.1,415.5 4224.3,415.5 4252.7,347.6 4215.3,0.1 "/>
<polygon class="st0" points="4224.3,415.5 4193.1,596.4 4374,598.8 4252.7,347.6 "/>
<polygon class="st1" points="4080,598.8 4193.1,596.4 4224.3,415.5 4122.1,415.5 "/>
<rect x="-15.4" y="-14" class="st3" width="4407.6" height="636.9"/>
</svg>
