<?xml version="1.0" encoding="utf-8"?>
<!-- Generator: Adobe Illustrator 17.0.0, SVG Export Plug-In . SVG Version: 6.00 Build 0)  -->
<!DOCTYPE svg PUBLIC "-//W3C//DTD SVG 1.1//EN" "http://www.w3.org/Graphics/SVG/1.1/DTD/svg11.dtd">
<svg version="1.1" id="Livello_1" xmlns="http://www.w3.org/2000/svg" xmlns:xlink="http://www.w3.org/1999/xlink" x="0px" y="0px"
	 width="126.323px" height="17.23px" viewBox="-1911.362 644.718 126.323 17.23"
	 enable-background="new -1911.362 644.718 126.323 17.23" xml:space="preserve">
<polyline fill="#A9A8A8" points="-1879.745,656.088 -1888.065,656.591 -1894.863,657.88 -1910.47,661.948 -1851.519,661.948 
	-1812.243,661.948 -1786.725,661.948 -1795.183,658.819 -1803.442,657.514 -1810.394,656.885 "/>
<g>
	<path fill="#A9A8A8" d="M-1888.065,656.591l6.451-0.582l16.036-0.753l9.54,0.377c0,0,7.464-0.377,7.781-0.377
		c0.317,0,10.032-0.427,10.032-0.427l10.063,0.678c0,0,11.074,0.523,11.311,0.45c0.237-0.073,6.457,0.928,6.457,0.928l-5.634,3.872
		l-19.366,0.172c0,0-6.119-0.418-6.436-0.345c-0.317,0.073-8.482,0.083-9.194,0.23c-0.713,0.147-5.537,0.23-6.091,0.23
		c-0.554,0-4.252,0-4.252,0s-6.019-0.074-6.494,0c-0.475,0.073-8.266,0.083-9.137,0.23c-0.871,0.147-11.542-2.111-12.017-2.111
		c-0.475,0-5.463-1.249-5.463-1.249L-1888.065,656.591z"/>
	<path fill="#B1B1B1" d="M-1810.394,656.885c0,0-1.915-0.308-3.66-0.57c-2.303,0.297-5.417,0.636-7.235,0.57
		c-3.144-0.113-4.773-0.93-11.062-0.529c-6.289,0.401-11.561-0.949-13.627-0.724c-17.493,1.905-13.197,0.093-16.51-0.025
		c-2.92-0.104-11.583,0.662-16.299,0.87c-2.826,0.125-7.223,0.247-10.295,0.324l-2.854,0.588c2.514,0.259,6.501,0.653,8.488,0.756
		c3.032,0.158,4.773-0.523,7.412-0.746c2.639-0.224,5.379-0.154,8.973,0.367c3.594,0.521,9.378,0.861,15.555,0.685
		c6.177-0.176,17.754-1.662,19.79-1.566c2.036,0.096,5.769,0.113,9.419,0.321c2.744,0.157,8.723-0.104,11.523-0.242
		L-1810.394,656.885z"/>
	<polygon fill="#9D9D9E" points="-1832.275,655.893 -1829.055,647.321 -1826.42,646.51 -1822.052,647.085 -1821.544,650.992 
		-1818.304,656.246 -1823.844,656.885 -1829.287,656.584 	"/>
	<path fill="#A9A8A8" d="M-1832.275,655.893l2.988,0.691l1.655,0.091l0.414-1.008c0,0,0.209-1.099,0.235-1.174
		c0.026-0.075-0.052-1.299,0.128-1.423c0.18-0.125,0.97-1.373,0.97-1.373l1.522-1.349l-0.346-1.099l-1.634-2.729l-0.077-0.01
		l-2.636,0.811L-1832.275,655.893z"/>
	<polygon fill="#9D9D9E" points="-1830.348,656.339 -1827.337,647.179 -1828.842,652.502 -1828.59,652.967 -1829.425,656.605 	"/>
	<polygon fill="#A9A8A8" points="-1879.745,656.088 -1876.994,653.516 -1874.014,652.801 -1872.343,650.585 -1869.092,649.371 
		-1867.722,650.657 -1864.668,652.729 -1861.493,653.73 -1860.745,656.088 -1868.033,656.885 -1873.266,656.885 	"/>
	<polygon fill="#9D9D9E" points="-1870.989,653.801 -1872.83,655.802 -1872.83,656.885 -1868.033,656.885 -1860.745,656.088 
		-1861.493,653.73 -1864.668,652.729 -1867.722,650.657 -1869.092,649.371 -1869.636,651.678 	"/>
	<g>
		<path fill="#9D9D9E" d="M-1862.703,656.42l0.56-1.678l0.607-0.732l1.344-0.852l1.991,0.3l0.855,0.918l0.066,1.83
			c0,0-2.635,0.385-2.647,0.388C-1859.939,656.596-1862.703,656.42-1862.703,656.42z"/>
		<path fill="#A9A8A8" d="M-1862.143,654.742l-0.56,1.678c0,0,2.763,0.176,2.775,0.173c0.003-0.001,0.196-0.029,0.476-0.07
			l-0.268-0.939l0.063-0.451l-0.063-0.847l0.055-0.58l-0.528-0.548l-1.344,0.852L-1862.143,654.742z"/>
		<polygon fill="#9D9D9E" points="-1861.077,656.523 -1860.642,655.862 -1860.404,654.875 -1859.991,653.525 -1860.837,655.552 
			-1861.077,655.717 -1861.478,656.497 		"/>
	</g>
	<g>
		<path fill="#9D9D9E" d="M-1837.818,655.291l0.396-0.824l0.429-0.359l0.95-0.419l1.407,0.147l0.604,0.451l0.046,0.899
			c0,0-1.862,0.189-1.871,0.19C-1835.866,655.378-1837.818,655.291-1837.818,655.291z"/>
		<path fill="#A9A8A8" d="M-1837.422,654.467l-0.396,0.824c0,0,1.953,0.086,1.961,0.085c0.002,0,0.139-0.014,0.337-0.034
			l-0.189-0.461l0.044-0.221l-0.044-0.416l0.039-0.285l-0.373-0.269l-0.95,0.419L-1837.422,654.467z"/>
	</g>
	<g>
		<path fill="#9D9D9E" d="M-1833.308,656.584l0.336-1.102l0.364-0.481l0.807-0.559l1.196,0.197l0.513,0.603l0.04,1.201
			c0,0-1.582,0.253-1.589,0.254C-1831.649,656.699-1833.308,656.584-1833.308,656.584z"/>
		<path fill="#A9A8A8" d="M-1832.972,655.482l-0.336,1.102c0,0,1.659,0.115,1.666,0.113c0.002,0,0.118-0.019,0.286-0.046
			l-0.161-0.617l0.038-0.296l-0.038-0.556l0.033-0.381l-0.317-0.36l-0.807,0.559L-1832.972,655.482z"/>
	</g>
	<g>
		<path fill="#9D9D9E" d="M-1839.336,655.315l0.23-0.571l0.249-0.249l0.552-0.29l0.818,0.102l0.351,0.312l0.027,0.622
			c0,0-1.083,0.131-1.088,0.132C-1838.201,655.374-1839.336,655.315-1839.336,655.315z"/>
		<path fill="#A9A8A8" d="M-1839.106,654.744l-0.23,0.571c0,0,1.135,0.06,1.14,0.059c0.001,0,0.081-0.01,0.196-0.024l-0.11-0.319
			l0.026-0.153l-0.026-0.288l0.022-0.197l-0.217-0.186l-0.552,0.29L-1839.106,654.744z"/>
	</g>
	<g>
		<path fill="#9D9D9E" d="M-1893.849,658.243l0.505-1.252l0.547-0.547l1.212-0.636l1.796,0.224l0.771,0.685l0.06,1.365
			c0,0-2.377,0.287-2.388,0.289C-1891.357,658.374-1893.849,658.243-1893.849,658.243z"/>
		<path fill="#A9A8A8" d="M-1893.344,656.991l-0.505,1.252c0,0,2.492,0.131,2.503,0.129c0.003-0.001,0.177-0.022,0.43-0.053
			l-0.241-0.701l0.057-0.336l-0.057-0.632l0.049-0.433l-0.477-0.409l-1.212,0.636L-1893.344,656.991z"/>
	</g>
	<polygon fill="#9D9D9E" points="-1876.749,656.456 -1875.908,655.049 -1872.985,654.149 -1872.713,652.839 -1870.418,649.866 
		-1873.343,653.21 -1873.377,653.781 -1877.377,655.05 -1878.098,656.291 	"/>
	<polygon fill="#A9A8A8" points="-1868.033,656.885 -1867.533,654.885 -1868.37,653.802 -1868.833,649.866 -1867.942,653.904 
		-1866.41,654.906 -1866.553,656.705 	"/>
	<path fill="#90908F" d="M-1881.801,656.975c0,0.094-0.256,0.171-0.571,0.171c-0.315,0-0.571-0.077-0.571-0.171
		c0-0.095,0.255-0.171,0.571-0.171C-1882.056,656.803-1881.801,656.88-1881.801,656.975z"/>
	<path fill="#90908F" d="M-1876.607,660.274c0,0.095-0.256,0.171-0.571,0.171c-0.315,0-0.571-0.077-0.571-0.171
		c0-0.095,0.255-0.171,0.571-0.171C-1876.863,660.103-1876.607,660.179-1876.607,660.274z"/>
	<path fill="#90908F" d="M-1833.493,661.06c0,0.094-0.256,0.171-0.571,0.171c-0.315,0-0.571-0.077-0.571-0.171
		c0-0.095,0.255-0.171,0.571-0.171C-1833.748,660.889-1833.493,660.965-1833.493,661.06z"/>
	<path fill="#90908F" d="M-1818.097,657.232c0,0.073-0.178,0.133-0.398,0.133c-0.22,0-0.398-0.059-0.398-0.133
		c0-0.073,0.178-0.133,0.398-0.133C-1818.275,657.099-1818.097,657.159-1818.097,657.232z"/>
	<path fill="#90908F" d="M-1845.385,656.689c0,0.063-0.243,0.114-0.542,0.114s-0.542-0.051-0.542-0.114
		c0-0.063,0.243-0.114,0.542-0.114S-1845.385,656.626-1845.385,656.689z"/>
	<path fill="#90908F" d="M-1811.75,659.796c0,0.063-0.243,0.114-0.542,0.114s-0.542-0.051-0.542-0.114
		c0-0.063,0.243-0.114,0.542-0.114S-1811.75,659.733-1811.75,659.796z"/>
	<ellipse fill="#90908F" cx="-1858.646" cy="659.237" rx="0.542" ry="0.114"/>
	<ellipse fill="#90908F" cx="-1839.661" cy="657.589" rx="0.532" ry="0.118"/>
	<path fill="#90908F" d="M-1827.12,657.831c0,0.094-0.345,0.171-0.771,0.171c-0.426,0-0.771-0.077-0.771-0.171
		c0-0.095,0.345-0.171,0.771-0.171C-1827.465,657.66-1827.12,657.736-1827.12,657.831z"/>
	<path fill="#90908F" d="M-1871.184,657.403c0,0.047-0.319,0.086-0.713,0.086s-0.714-0.038-0.714-0.086
		c0-0.047,0.319-0.086,0.714-0.086S-1871.184,657.355-1871.184,657.403z"/>
</g>
<g>
	<path fill="#CDCCCC" d="M-1850.765,656.421l-1.847,0.067l-1.847,0.067c0,0-0.075,0.438-0.379,0.953c0,0,0.173,0.376,2.274,0.3
		c2.101-0.076,2.247-0.463,2.247-0.463C-1850.658,656.852-1850.765,656.421-1850.765,656.421z"/>
	<path fill="#838383" d="M-1850.765,656.421c0.006,0.174-0.816,0.345-1.836,0.382c-1.02,0.037-1.852-0.074-1.859-0.249
		c-0.006-0.174,0.816-0.345,1.836-0.382C-1851.603,656.136-1850.771,656.247-1850.765,656.421z"/>
</g>
<g>
	<path fill="#CDCCCC" d="M-1866.263,658.019l-1.013,0.037l-1.013,0.037c0,0-0.041,0.24-0.208,0.523c0,0,0.095,0.206,1.247,0.164
		c1.152-0.042,1.232-0.254,1.232-0.254C-1866.205,658.256-1866.263,658.019-1866.263,658.019z"/>
	<path fill="#838383" d="M-1866.263,658.019c0.003,0.096-0.447,0.19-1.007,0.21c-0.56,0.02-1.016-0.041-1.019-0.136
		c-0.003-0.095,0.447-0.189,1.007-0.21C-1866.723,657.862-1866.267,657.923-1866.263,658.019z"/>
</g>
<g>
	<path fill="#CDCCCC" d="M-1882.382,659.617l-1.758,0.064l-1.758,0.063c0,0-0.072,0.417-0.361,0.907c0,0,0.165,0.357,2.164,0.285
		c2-0.072,2.138-0.441,2.138-0.441C-1882.281,660.027-1882.382,659.617-1882.382,659.617z"/>
	<path fill="#838383" d="M-1882.382,659.617c0.006,0.166-0.776,0.329-1.748,0.364c-0.971,0.035-1.763-0.071-1.769-0.237
		c-0.006-0.166,0.776-0.328,1.747-0.364C-1883.18,659.345-1882.388,659.451-1882.382,659.617z"/>
</g>
<g>
	<path fill="#CDCCCC" d="M-1805.219,656.658l-1.758,0.064l-1.758,0.063c0,0-0.072,0.417-0.361,0.907c0,0,0.165,0.357,2.164,0.285
		c2-0.073,2.138-0.441,2.138-0.441C-1805.118,657.069-1805.219,656.658-1805.219,656.658z"/>
	<path fill="#838383" d="M-1805.219,656.658c0.006,0.166-0.776,0.329-1.748,0.364c-0.971,0.035-1.763-0.071-1.769-0.237
		c-0.006-0.166,0.776-0.328,1.747-0.364C-1806.017,656.387-1805.225,656.493-1805.219,656.658z"/>
</g>
<polygon fill="#B1B1B1" points="-1791.682,660.175 -1796.758,660.051 -1801.297,658.548 -1810.32,659.633 -1811.799,660.57 
	-1821.857,660.866 -1827.33,661.926 -1811.084,661.95 -1809.95,660.594 -1803.121,661.014 -1796.613,661.556 "/>
<g>
	<path fill="#9D9D9E" d="M-1801.38,660.007l0.711-2.331l0.77-1.016l1.706-1.183l2.529,0.417l1.086,1.274l0.084,2.541
		c0,0-3.346,0.534-3.362,0.538C-1797.871,660.251-1801.38,660.007-1801.38,660.007z"/>
	<path fill="#A9A8A8" d="M-1800.669,657.677l-0.711,2.331c0,0,3.509,0.244,3.524,0.24c0.004-0.001,0.249-0.04,0.605-0.097
		l-0.34-1.304l0.08-0.626l-0.08-1.176l0.07-0.805l-0.671-0.761l-1.706,1.183L-1800.669,657.677z"/>
</g>
<polyline fill="#B1B1B1" points="-1902.077,659.732 -1896.95,660.668 -1895.421,661.95 -1884.377,662 -1893.35,660.619 
	-1898.281,659.978 -1898.133,658.696 "/>
<path fill="#90908F" d="M-1893.443,661.303c0,0.063-0.192,0.114-0.428,0.114c-0.236,0-0.428-0.051-0.428-0.114
	c0-0.063,0.192-0.114,0.428-0.114C-1893.635,661.189-1893.443,661.24-1893.443,661.303z"/>
</svg>
